# Blender v3.1.2 OBJ File: 'cesna.blend'
# www.blender.org
mtllib propeller.mtl
o Plane-Propeller_Cube.001
v -5.561477 0.726702 -8.071309
v -5.552028 0.681245 -8.071309
v -5.555829 0.725324 -7.659319
v -5.538344 0.682113 -7.653716
v -5.531809 0.683175 -7.653716
v -5.549294 0.726387 -7.659319
v -5.536199 0.681245 -8.071309
v -5.545648 0.726702 -8.071309
v -5.561477 0.754722 -8.009519
v -5.561477 0.681245 -8.009519
v -5.545648 0.681245 -8.009519
v -5.545648 0.754722 -8.009519
v -5.561477 0.703974 -8.071309
v -5.552181 0.702890 -7.648112
v -5.545648 0.703974 -8.071309
v -5.545646 0.703953 -7.648112
v -5.557976 0.717984 -8.009519
v -5.578931 0.717984 -8.009519
v -5.561478 0.690585 -8.166046
v -5.552028 0.736042 -8.166046
v -5.555830 0.691963 -8.578035
v -5.538345 0.735174 -8.583639
v -5.531810 0.734112 -8.583639
v -5.549295 0.690900 -8.578035
v -5.536200 0.736042 -8.166046
v -5.545649 0.690585 -8.166046
v -5.561478 0.662565 -8.227837
v -5.561478 0.736042 -8.227837
v -5.545649 0.736042 -8.227837
v -5.545649 0.662565 -8.227837
v -5.561478 0.713314 -8.166046
v -5.552182 0.714397 -8.589243
v -5.545649 0.713314 -8.166046
v -5.545648 0.713335 -8.589243
v -5.557977 0.699304 -8.227837
v -5.578932 0.699304 -8.227837
v -5.614921 0.660321 -8.146576
v -5.614921 0.708643 -8.174475
v -5.683710 0.708643 -8.135303
v -5.493583 0.708643 -8.204222
v -5.683710 0.694245 -8.126990
v -5.493583 0.634559 -8.161449
v -5.683710 0.694245 -8.110364
v -5.493583 0.634559 -8.075905
v -5.683710 0.708643 -8.102051
v -5.493583 0.708643 -8.033133
v -5.683710 0.723042 -8.110364
v -5.493583 0.782727 -8.075905
v -5.683710 0.723042 -8.126990
v -5.493583 0.782727 -8.161449
v -5.614921 0.660321 -8.090778
v -5.614921 0.708643 -8.062880
v -5.614921 0.756965 -8.090778
v -5.614921 0.756965 -8.146576
v -5.541181 0.735281 -8.540015
v -5.548895 0.687794 -8.539639
v -5.556451 0.688731 -8.539537
v -5.533491 0.734346 -8.540434
v -5.555860 0.712322 -8.539551
v -5.547318 0.711433 -8.540257
v -5.557504 0.683250 -8.474244
v -5.536037 0.734702 -8.474952
v -5.560693 0.709595 -8.474255
v -5.545433 0.735440 -8.474621
v -5.548215 0.682509 -8.474323
v -5.549551 0.708892 -8.474813
v -5.541190 0.682006 -7.697495
v -5.548893 0.729506 -7.697871
v -5.556453 0.728569 -7.697972
v -5.533496 0.682940 -7.697077
v -5.555871 0.704972 -7.697958
v -5.547323 0.705860 -7.697253
v -5.557511 0.734076 -7.763570
v -5.536055 0.682583 -7.762863
v -5.560727 0.707712 -7.763559
v -5.545462 0.681846 -7.763193
v -5.548210 0.734816 -7.763490
v -5.549566 0.708413 -7.763001
vt 0.500000 0.214440
vt 0.625000 0.214440
vt 0.625000 0.250000
vt 0.500000 0.250000
vt 0.625000 0.500000
vt 0.500000 0.500000
vt 0.500000 0.720842
vt 0.625000 0.726393
vt 0.625000 0.750000
vt 0.500000 0.750000
vt 0.625000 1.000000
vt 0.500000 1.000000
vt 0.125000 0.723614
vt 0.375000 0.723867
vt 0.375000 0.750000
vt 0.125000 0.750000
vt 0.875000 0.726332
vt 0.875000 0.750000
vt 0.875000 0.500000
vt 0.875000 0.535560
vt 0.625000 0.535560
vt 0.125000 0.500000
vt 0.375000 0.500000
vt 0.375000 0.535560
vt 0.125000 0.535560
vt 0.500000 0.535560
vt 0.500000 0.068501
vt 0.625000 0.063836
vt 0.375000 0.065982
vt 0.375000 0.214440
vt 0.375000 1.000000
vt 0.375000 0.250000
vt 0.500000 0.214440
vt 0.625000 0.214440
vt 0.625000 0.250000
vt 0.500000 0.250000
vt 0.625000 0.500000
vt 0.500000 0.500000
vt 0.500000 0.720935
vt 0.625000 0.726488
vt 0.625000 0.750000
vt 0.500000 0.750000
vt 0.625000 1.000000
vt 0.500000 1.000000
vt 0.125000 0.723708
vt 0.375000 0.723960
vt 0.375000 0.750000
vt 0.125000 0.750000
vt 0.875000 0.726427
vt 0.875000 0.750000
vt 0.875000 0.500000
vt 0.875000 0.535560
vt 0.625000 0.535560
vt 0.125000 0.500000
vt 0.375000 0.500000
vt 0.375000 0.535560
vt 0.125000 0.535560
vt 0.500000 0.535560
vt 0.500000 0.068228
vt 0.625000 0.063555
vt 0.375000 0.065705
vt 0.375000 0.214440
vt 0.375000 1.000000
vt 0.375000 0.250000
vt 0.833333 0.500000
vt 0.833333 0.750000
vt 0.666667 0.750000
vt 0.666667 0.500000
vt 1.000000 0.750000
vt 1.000000 1.000000
vt 0.833333 1.000000
vt 0.500000 0.750000
vt 0.500000 0.500000
vt 0.666667 1.000000
vt 0.333333 0.750000
vt 0.333333 0.500000
vt 0.500000 1.000000
vt 0.166667 0.750000
vt 0.166667 0.500000
vt 0.333333 1.000000
vt 0.457846 0.370000
vt 0.250000 0.490000
vt 0.042154 0.370000
vt 0.042154 0.130000
vt 0.250000 0.010000
vt 0.457846 0.130000
vt -0.000000 0.750000
vt -0.000000 0.500000
vt 0.166667 1.000000
vt 1.000000 0.500000
vt -0.000000 1.000000
vt 0.750000 0.490000
vt 0.957846 0.370000
vt 0.957846 0.130000
vt 0.750000 0.010000
vt 0.542154 0.130000
vt 0.542154 0.370000
vt 0.375000 0.000000
vt 0.500000 0.000000
vt 0.500000 0.029485
vt 0.375000 0.026292
vt 0.625000 0.000000
vt 0.625000 0.023573
vt 0.625000 0.686494
vt 0.500000 0.682103
vt 0.375000 0.684495
vt 0.125000 0.684295
vt 0.875000 0.686445
vt 0.375000 0.000000
vt 0.500000 0.000000
vt 0.500000 0.029577
vt 0.375000 0.026386
vt 0.625000 0.000000
vt 0.625000 0.023668
vt 0.625000 0.686213
vt 0.500000 0.681830
vt 0.375000 0.684218
vt 0.125000 0.684018
vt 0.875000 0.686164
vn -0.9348 0.2744 -0.2254
vn 0.0000 0.0000 -1.0000
vn 0.9938 0.1105 -0.0081
vn -0.0710 0.4365 0.8969
vn 0.1391 -0.9903 -0.0033
vn -0.1406 0.9867 0.0817
vn 0.0000 0.9107 -0.4130
vn 0.0000 -1.0000 0.0000
vn 0.9659 -0.2002 0.1644
vn -0.9485 0.3107 0.0623
vn -0.8852 -0.4623 0.0524
vn 0.9316 0.3412 0.1255
vn 0.0384 -0.2363 0.9709
vn 0.8436 0.5366 -0.0210
vn -0.9008 -0.4075 -0.1499
vn -0.9348 -0.2744 0.2253
vn 0.0000 0.0000 1.0000
vn 0.9938 -0.1106 0.0081
vn -0.0710 -0.4365 -0.8969
vn 0.1391 0.9903 0.0033
vn -0.1406 -0.9867 -0.0817
vn 0.0000 -0.9107 0.4130
vn 0.0000 1.0000 -0.0000
vn 0.9659 0.2002 -0.1644
vn -0.9486 -0.3104 -0.0623
vn -0.8851 0.4624 -0.0524
vn 0.9316 -0.3411 -0.1255
vn 0.0385 0.2363 -0.9709
vn 0.8435 -0.5367 0.0210
vn -0.9008 0.4075 0.1499
vn -0.4423 -0.8969 0.0000
vn -0.2077 -0.4891 -0.8471
vn -0.4423 -0.4484 0.7767
vn -0.2077 -0.9782 0.0000
vn -0.4423 0.4484 0.7767
vn -0.2077 -0.4891 0.8471
vn -0.4423 0.8969 0.0000
vn -0.2077 0.4891 0.8471
vn 1.0000 0.0000 0.0000
vn -0.4423 0.4484 -0.7767
vn -0.2077 0.9782 0.0000
vn -0.4423 -0.4484 -0.7767
vn -0.2077 0.4891 -0.8471
vn -1.0000 -0.0000 0.0000
vn -0.8342 0.5494 -0.0466
vn -0.9957 0.0811 -0.0437
vn 0.9770 0.2117 0.0243
vn 0.0292 0.9996 -0.0024
vn -0.0297 -0.9962 -0.0822
vn 0.9239 -0.3817 0.0274
vn -0.8343 -0.5494 0.0467
vn -0.9958 -0.0809 0.0437
vn 0.9770 -0.2119 -0.0243
vn 0.0292 -0.9996 0.0024
vn -0.0296 0.9962 0.0822
vn 0.9240 0.3815 -0.0274
vn 0.8719 -0.4891 0.0237
vn -0.0997 -0.9916 -0.0820
vn 0.0975 0.9952 0.0012
vn 0.9999 -0.0045 0.0116
vn -0.8517 0.5217 -0.0490
vn -0.9975 -0.0519 -0.0482
vn 0.8720 0.4889 -0.0237
vn -0.0995 0.9916 0.0820
vn 0.0973 -0.9953 -0.0011
vn 0.9999 0.0040 -0.0116
vn -0.8518 -0.5215 0.0490
vn -0.9974 0.0526 0.0483
usemtl White
s off
f 18/1/1 9/2/1 1/3/1 13/4/1
f 13/4/2 1/3/2 8/5/2 15/6/2
f 72/7/3 68/8/3 6/9/3 16/10/3
f 16/10/4 6/9/4 3/11/4 14/12/4
f 67/13/5 70/14/5 5/15/5 4/16/5
f 68/8/6 69/17/6 3/18/6 6/9/6
f 8/5/7 1/19/7 9/20/7 12/21/7
f 2/22/8 7/23/8 11/24/8 10/25/8
f 15/6/9 8/5/9 12/21/9 17/26/9
f 75/27/10 73/28/10 9/2/10 18/1/10
f 76/29/11 75/27/11 18/1/11 10/30/11
f 7/23/12 15/6/12 17/26/12 11/24/12
f 5/15/13 16/10/13 14/12/13 4/31/13
f 70/14/14 72/7/14 16/10/14 5/15/14
f 2/32/2 13/4/2 15/6/2 7/23/2
f 10/30/15 18/1/15 13/4/15 2/32/15
f 36/33/16 27/34/16 19/35/16 31/36/16
f 31/36/17 19/35/17 26/37/17 33/38/17
f 60/39/18 56/40/18 24/41/18 34/42/18
f 34/42/19 24/41/19 21/43/19 32/44/19
f 55/45/20 58/46/20 23/47/20 22/48/20
f 56/40/21 57/49/21 21/50/21 24/41/21
f 26/37/22 19/51/22 27/52/22 30/53/22
f 20/54/23 25/55/23 29/56/23 28/57/23
f 33/38/24 26/37/24 30/53/24 35/58/24
f 63/59/25 61/60/25 27/34/25 36/33/25
f 64/61/26 63/59/26 36/33/26 28/62/26
f 25/55/27 33/38/27 35/58/27 29/56/27
f 23/47/28 34/42/28 32/44/28 22/63/28
f 58/46/29 60/39/29 34/42/29 23/47/29
f 20/64/17 31/36/17 33/38/17 25/55/17
f 28/62/30 36/33/30 31/36/30 20/64/30
f 41/65/31 37/66/31 51/67/31 43/68/31
f 38/69/32 40/70/32 42/71/32 37/66/32
f 43/68/33 51/67/33 52/72/33 45/73/33
f 37/66/34 42/71/34 44/74/34 51/67/34
f 45/73/35 52/72/35 53/75/35 47/76/35
f 51/67/36 44/74/36 46/77/36 52/72/36
f 47/76/37 53/75/37 54/78/37 49/79/37
f 52/72/38 46/77/38 48/80/38 53/75/38
f 42/81/39 40/82/39 50/83/39 48/84/39 46/85/39 44/86/39
f 49/79/40 54/78/40 38/87/40 39/88/40
f 53/75/41 48/80/41 50/89/41 54/78/41
f 39/90/42 38/69/42 37/66/42 41/65/42
f 54/78/43 50/89/43 40/91/43 38/87/43
f 39/92/44 41/93/44 43/94/44 45/95/44 47/96/44 49/97/44
f 22/98/45 32/99/45 59/100/45 55/101/45
f 32/99/46 21/102/46 57/103/46 59/100/46
f 35/58/47 30/53/47 65/104/47 66/105/47
f 28/57/48 29/56/48 62/106/48 64/107/48
f 30/53/49 27/52/49 61/108/49 65/104/49
f 29/56/50 35/58/50 66/105/50 62/106/50
f 4/109/51 14/110/51 71/111/51 67/112/51
f 14/110/52 3/113/52 69/114/52 71/111/52
f 17/26/53 12/21/53 77/115/53 78/116/53
f 10/25/54 11/24/54 74/117/54 76/118/54
f 12/21/55 9/20/55 73/119/55 77/115/55
f 11/24/56 17/26/56 78/116/56 74/117/56
usemtl Red
f 62/106/57 66/105/57 60/39/57 58/46/57
f 65/104/58 61/108/58 57/49/58 56/40/58
f 64/107/59 62/106/59 58/46/59 55/45/59
f 66/105/60 65/104/60 56/40/60 60/39/60
f 55/101/61 59/100/61 63/59/61 64/61/61
f 59/100/62 57/103/62 61/60/62 63/59/62
f 74/117/63 78/116/63 72/7/63 70/14/63
f 77/115/64 73/119/64 69/17/64 68/8/64
f 76/118/65 74/117/65 70/14/65 67/13/65
f 78/116/66 77/115/66 68/8/66 72/7/66
f 67/112/67 71/111/67 75/27/67 76/29/67
f 71/111/68 69/114/68 73/28/68 75/27/68
